<svg width="97" height="59" viewBox="0 0 97 59" fill="none" xmlns="http://www.w3.org/2000/svg">
    <g id="logo">
        <path fill-rule="evenodd" clip-rule="evenodd" d="M20 5H5V20H20V5ZM11.0769 18H9.82349V13.0444H8.02637V12.011H12.874V13.0444H11.0769V18ZM18.2893 16.2153C18.2893 17.4023 17.3679 18.1536 15.8738 18.1536C14.4419 18.1536 13.5371 17.4688 13.4666 16.4062L13.4624 16.3398H14.6702L14.6743 16.3813C14.72 16.8296 15.2056 17.1326 15.907 17.1326C16.5752 17.1326 17.0359 16.813 17.0359 16.3523V16.3481C17.0359 15.9539 16.7412 15.7339 15.9983 15.5803L15.3674 15.4517C14.1223 15.1985 13.5869 14.6174 13.5869 13.7085V13.7043C13.5869 12.592 14.5415 11.8574 15.8696 11.8574C17.2683 11.8574 18.0901 12.5962 18.1689 13.5964L18.1731 13.6504H16.9944L16.9861 13.6006C16.9155 13.1731 16.5005 12.8743 15.8696 12.8743C15.2512 12.8784 14.8403 13.1606 14.8403 13.6089V13.613C14.8403 14.0032 15.1309 14.2356 15.8364 14.3809L16.4714 14.5095C17.7373 14.771 18.2893 15.2773 18.2893 16.2112V16.2153Z" fill="#121923"/>
    </g>

    <g id="abstaction">
        <g opacity="0.5">
        <path d="M714.509 231.003L597.003 299.867" stroke="#B2B2B2"/>
        <path d="M645.645 113.497L528.139 182.361" stroke="url(#paint0_linear_15_2063)"/>
        <path d="M597.003 299.867L528.139 182.361" stroke="#B2B2B2"/>
        <path d="M714.509 231.003L645.645 113.497" stroke="#B2B2B2"/>
        <path d="M597.003 299.867L440.328 391.686" stroke="#B2B2B2"/>
        <path d="M528.139 182.361L371.464 274.181" stroke="url(#paint1_linear_15_2063)"/>
        <path d="M440.329 391.687L371.464 274.181" stroke="#B2B2B2"/>
        <path d="M597.003 299.867L528.139 182.361" stroke="url(#paint2_linear_15_2063)"/>
        <path d="M97.2837 434.865L214.79 366" stroke="#B2B2B2"/>
        <path d="M166.148 552.37L283.654 483.506" stroke="#B2B2B2"/>
        <path d="M214.79 366L283.654 483.506" stroke="#B2B2B2"/>
        <path d="M97.2837 434.865L166.148 552.37" stroke="#B2B2B2"/>
        <path d="M214.79 366L371.464 274.181" stroke="url(#paint3_linear_15_2063)"/>
        <path d="M283.654 483.506L440.329 391.687" stroke="#B2B2B2"/>
        <path d="M214.79 366L283.654 483.506" stroke="#B2B2B2"/>
        <path d="M440.328 391.687L557.834 322.822" stroke="#B2B2B2"/>
        <path d="M509.193 509.193L626.699 440.328" stroke="#B2B2B2"/>
        <path d="M557.834 322.822L626.699 440.328" stroke="#B2B2B2"/>
        <path d="M557.834 322.822L714.509 231.003" stroke="#B2B2B2"/>
        <path d="M557.834 322.822L626.698 440.328" stroke="#B2B2B2"/>
        <path d="M509.193 509.192L391.687 578.057" stroke="#B2B2B2"/>
        <path d="M440.329 391.686L322.823 460.551" stroke="#B2B2B2"/>
        <path d="M391.687 578.057L322.823 460.551" stroke="#B2B2B2"/>
        <path d="M391.687 578.057L235.012 669.876" stroke="#B2B2B2"/>
        <path d="M322.823 460.551L166.148 552.37" stroke="#B2B2B2"/>
        <path d="M235.013 669.876L166.148 552.37" stroke="url(#paint4_linear_15_2063)"/>
        <path d="M391.687 578.057L322.823 460.551" stroke="#B2B2B2"/>
        <path d="M734.729 534.879L578.054 626.698" stroke="#B2B2B2"/>
        <path d="M665.865 417.373L509.19 509.192" stroke="#B2B2B2"/>
        <path d="M578.054 626.698L509.19 509.192" stroke="#B2B2B2"/>
        <path d="M235.01 669.876L352.515 601.011" stroke="#B2B2B2"/>
        <path d="M303.874 787.382L421.38 718.517" stroke="#B2B2B2"/>
        <path d="M352.516 601.011L421.38 718.517" stroke="#B2B2B2"/>
        <path d="M235.01 669.876L303.874 787.382" stroke="#B2B2B2"/>
        <path d="M352.516 601.011L509.191 509.192" stroke="url(#paint5_linear_15_2063)"/>
        <path d="M421.38 718.517L578.055 626.698" stroke="#B2B2B2"/>
        <path d="M352.516 601.011L421.381 718.517" stroke="#B2B2B2"/>
        <path d="M578.054 626.698L695.56 557.834" stroke="#B2B2B2"/>
        <path d="M646.919 744.204L529.413 813.068" stroke="#B2B2B2"/>
        <path d="M578.054 626.698L460.549 695.562" stroke="#B2B2B2"/>
        <path d="M529.413 813.068L460.549 695.562" stroke="#B2B2B2"/>
        <path d="M529.413 813.068L372.739 904.887" stroke="#B2B2B2"/>
        <path d="M460.549 695.562L303.874 787.382" stroke="#B2B2B2"/>
        <path d="M372.739 904.888L303.874 787.382" stroke="#B2B2B2"/>
        <path d="M529.413 813.068L460.549 695.562" stroke="url(#paint6_linear_15_2063)"/>
        </g>
        <defs>
        <linearGradient id="paint0_linear_15_2063" x1="621.653" y1="107.235" x2="562.831" y2="160.098" gradientUnits="userSpaceOnUse">
        <stop stop-color="#13B0F5"/>
        <stop offset="1" stop-color="#CA24B4"/>
        </linearGradient>
        <linearGradient id="paint1_linear_15_2063" x1="527.723" y1="183.954" x2="427.611" y2="316.567" gradientUnits="userSpaceOnUse">
        <stop stop-color="#E70FAA"/>
        <stop offset="1" stop-color="#13B0F5"/>
        </linearGradient>
        <linearGradient id="paint2_linear_15_2063" x1="603.265" y1="275.875" x2="550.402" y2="217.053" gradientUnits="userSpaceOnUse">
        <stop stop-color="#13B0F5"/>
        <stop offset="1" stop-color="#CA24B4"/>
        </linearGradient>
        <linearGradient id="paint3_linear_15_2063" x1="246.778" y1="374.349" x2="325.208" y2="303.866" gradientUnits="userSpaceOnUse">
        <stop stop-color="#00C0FD"/>
        <stop offset="0.421875" stop-color="#E70FAA"/>
        <stop offset="1" stop-color="#00C0FD"/>
        </linearGradient>
        <linearGradient id="paint4_linear_15_2063" x1="235.013" y1="669.876" x2="134.428" y2="594.956" gradientUnits="userSpaceOnUse">
        <stop stop-color="#8E34FF"/>
        <stop offset="0.494792" stop-color="#CA24B4"/>
        <stop offset="1" stop-color="#8E34FF"/>
        </linearGradient>
        <linearGradient id="paint5_linear_15_2063" x1="392.585" y1="577.866" x2="465.959" y2="479.806" gradientUnits="userSpaceOnUse">
        <stop stop-color="#13B0F5"/>
        <stop offset="0.75" stop-color="#CA24B4"/>
        <stop offset="1" stop-color="#13B0F5"/>
        </linearGradient>
        <linearGradient id="paint6_linear_15_2063" x1="529.413" y1="813.068" x2="428.829" y2="738.149" gradientUnits="userSpaceOnUse">
        <stop stop-color="#13B0F5"/>
        <stop offset="0.0582928" stop-color="#CA24B4"/>
        <stop offset="1" stop-color="#13B0F5"/>
        </linearGradient>
        </defs>
    </g>

<!-- social icon -->

    <g id="github">       
        <path fill-rule="evenodd" clip-rule="evenodd" d="M15 0C6.7125 0 0 6.7125 0 15C0 21.6375 4.29375 27.2437 10.2563 29.2313C11.0063 29.3625 11.2875 28.9125 11.2875 28.5188C11.2875 28.1625 11.2688 26.9813 11.2688 25.725C7.5 26.4188 6.525 24.8062 6.225 23.9625C6.05625 23.5312 5.325 22.2 4.6875 21.8438C4.1625 21.5625 3.4125 20.8687 4.66875 20.85C5.85 20.8313 6.69375 21.9375 6.975 22.3875C8.325 24.6562 10.4812 24.0187 11.3438 23.625C11.475 22.65 11.8688 21.9937 12.3 21.6187C8.9625 21.2437 5.475 19.95 5.475 14.2125C5.475 12.5813 6.05625 11.2313 7.0125 10.1813C6.8625 9.80625 6.3375 8.26875 7.1625 6.20625C7.1625 6.20625 8.41875 5.8125 11.2875 7.74375C12.4875 7.40625 13.7625 7.2375 15.0375 7.2375C16.3125 7.2375 17.5875 7.40625 18.7875 7.74375C21.6562 5.79375 22.9125 6.20625 22.9125 6.20625C23.7375 8.26875 23.2125 9.80625 23.0625 10.1813C24.0188 11.2313 24.6 12.5625 24.6 14.2125C24.6 19.9688 21.0938 21.2437 17.7563 21.6187C18.3 22.0875 18.7688 22.9875 18.7688 24.3937C18.7688 26.4 18.75 28.0125 18.75 28.5188C18.75 28.9125 19.0312 29.3813 19.7812 29.2313C22.759 28.2259 25.3465 26.3121 27.1796 23.7592C29.0127 21.2063 29.9991 18.1429 30 15C30 6.7125 23.2875 0 15 0Z" fill="#666666"/>
    </g>

    <g id="twitter">
        <path d="M16.875 1.875C8.59152 1.875 1.875 8.59152 1.875 16.875C1.875 25.1585 8.59152 31.875 16.875 31.875C25.1585 31.875 31.875 25.1585 31.875 16.875C31.875 8.59152 25.1585 1.875 16.875 1.875ZM24.0837 13.1819C24.0937 13.3393 24.0937 13.5033 24.0937 13.6641C24.0937 18.5792 20.3504 24.2411 13.51 24.2411C11.4007 24.2411 9.44531 23.6283 7.79799 22.5737C8.09933 22.6071 8.38728 22.6205 8.69531 22.6205C10.4364 22.6205 12.0368 22.0312 13.3125 21.0335C11.6786 21 10.3058 19.9286 9.83705 18.4554C10.4096 18.5391 10.9252 18.5391 11.5145 18.3884C10.6732 18.2175 9.91699 17.7605 9.37438 17.0953C8.83178 16.43 8.53623 15.5973 8.53795 14.7388V14.692C9.03013 14.9699 9.60938 15.1406 10.2154 15.1641C9.70595 14.8245 9.28814 14.3645 8.99903 13.8249C8.70993 13.2852 8.55845 12.6825 8.55804 12.0703C8.55804 11.3772 8.73884 10.7444 9.06362 10.1953C9.99744 11.3449 11.1627 12.2851 12.4837 12.9548C13.8047 13.6245 15.2518 14.0088 16.731 14.0826C16.2054 11.5547 18.0938 9.50893 20.3638 9.50893C21.4353 9.50893 22.3996 9.95759 23.0792 10.6808C23.9196 10.5234 24.7232 10.2087 25.4397 9.78683C25.1618 10.6473 24.5792 11.3739 23.8058 11.8326C24.5558 11.7522 25.279 11.5446 25.9487 11.2533C25.4431 11.9967 24.8103 12.6562 24.0837 13.1819Z" fill="#666666"/>
    </g>

    <g id="linkedin">
        <g clip-path="url(#clip0_2_5677)">
        <path d="M15.0001 0.600098C7.0471 0.600098 0.600098 7.0471 0.600098 15.0001C0.600098 22.9531 7.0471 29.4001 15.0001 29.4001C22.9531 29.4001 29.4001 22.9531 29.4001 15.0001C29.4001 7.0471 22.9531 0.600098 15.0001 0.600098ZM11.4751 20.9686H8.5591V11.5846H11.4751V20.9686ZM9.9991 10.4326C9.0781 10.4326 8.4826 9.7801 8.4826 8.9731C8.4826 8.1496 9.0961 7.5166 10.0366 7.5166C10.9771 7.5166 11.5531 8.1496 11.5711 8.9731C11.5711 9.7801 10.9771 10.4326 9.9991 10.4326ZM22.1251 20.9686H19.2091V15.7681C19.2091 14.5576 18.7861 13.7356 17.7316 13.7356C16.9261 13.7356 16.4476 14.2921 16.2361 14.8276C16.1581 15.0181 16.1386 15.2881 16.1386 15.5566V20.9671H13.2211V14.5771C13.2211 13.4056 13.1836 12.4261 13.1446 11.5831H15.6781L15.8116 12.8866H15.8701C16.2541 12.2746 17.1946 11.3716 18.7681 11.3716C20.6866 11.3716 22.1251 12.6571 22.1251 15.4201V20.9686Z" fill="#666666"/>
        </g>
        <defs>
        <clipPath id="clip0_2_5677">
        <rect width="30" height="30" fill="white"/>
        </clipPath>
        </defs>
    </g>

    <!-- tech stack -->
    <g id="html">
        <path d="M22.1323 102.004L13.7061 7.5H106.294L97.856 101.989L59.9436 112.5L22.1323 102.004Z" fill="#E44F26"/>
        <path d="M60 104.468L90.6375 95.9738L97.845 15.2288H60V104.468Z" fill="#F1662A"/>
        <path d="M60 50.2762H44.6625L43.605 38.4075H60V26.8162H30.9375L31.215 29.9287L34.0613 61.8675H60V50.2762ZM60 80.3775L59.9475 80.3925L47.04 76.9087L46.215 67.665H34.5787L36.2025 85.86L59.9475 92.4525L60 92.4375V80.3775Z" fill="#EBEBEB"/>
        <path d="M59.959 50.2762V61.8675H74.2315L72.889 76.9012L59.959 80.3887V92.4487L83.7227 85.86L83.8952 83.9025L86.6177 53.3887L86.9027 50.2762H59.959ZM59.959 26.8162V38.4075H87.9565L88.189 35.805L88.7177 29.9287L88.9952 26.8162H59.959Z" fill="white"/>
    </g>

    <g id="css">
        <path d="M22.1325 101.154L13.71 7.4375H106.29L97.8562 101.139L59.9437 111.562L22.1325 101.154Z" fill="#1572B6"/>
        <path d="M60 103.597L90.6375 95.174L97.845 15.1019H60V103.597Z" fill="#33A9DC"/>
        <path d="M60 49.054H75.3375L76.395 37.2842H60V25.7896H89.0625L88.785 28.8724L85.9387 60.5487H60V49.054Z" fill="white"/>
        <path d="M60.0711 78.9045L60.0186 78.9193L47.1112 75.4609L46.2862 66.2942H34.6499L36.2737 84.3413L60.0149 90.8788L60.0711 90.864V78.9045Z" fill="#EBEBEB"/>
        <path d="M74.3513 60.0615L72.9563 75.4534L60.03 78.9119V90.8714L83.79 84.3412L83.9663 82.4001L85.98 60.0615H74.3513Z" fill="white"/>
        <path d="M60.0411 25.7896V37.2842H32.0436L31.8111 34.6997L31.2824 28.8724L31.0049 25.7896H60.0411ZM59.9999 49.054V60.5487H47.2536L47.0211 57.9642L46.4961 52.1369L46.2186 49.054H59.9999Z" fill="#EBEBEB"/>
    </g>

    <g id="js">
        <path d="M7.5 7.5H112.5V112.5H7.5V7.5Z" fill="#F5DE19"/>
        <path d="M78.0338 89.5312C78.9284 91.3485 80.3183 92.8759 82.0434 93.9375C83.7684 94.9991 85.7584 95.5515 87.7838 95.5313C91.8713 95.5313 94.485 93.4875 94.485 90.6562C94.485 87.2812 91.8 86.0738 87.3 84.105L84.8325 83.0475C77.7075 80.0138 72.9825 76.215 72.9825 68.1825C72.9825 60.7838 78.6075 55.1475 87.4313 55.1475C90.2877 54.9412 93.1416 55.5805 95.637 56.9856C98.1324 58.3907 100.159 60.4994 101.464 63.0488L93.75 67.98C93.2476 66.716 92.3728 65.6345 91.2416 64.879C90.1105 64.1236 88.7764 63.7298 87.4163 63.75C86.8229 63.6906 86.2236 63.7555 85.6567 63.9404C85.0897 64.1254 84.5675 64.4265 84.1234 64.8244C83.6792 65.2224 83.3228 65.7085 83.0769 66.2518C82.831 66.7951 82.7009 67.3837 82.695 67.98C82.695 70.9388 84.5288 72.1388 88.7625 73.98L91.23 75.0375C99.615 78.6338 104.355 82.2975 104.355 90.5363C104.355 99.42 97.3763 104.287 88.005 104.287C84.3537 104.52 80.713 103.691 77.5223 101.901C74.3317 100.11 71.7274 97.4342 70.0238 94.1963L78.0338 89.5312ZM43.1775 90.3863C44.7263 93.135 46.1363 95.46 49.5263 95.46C52.7663 95.46 54.8138 94.1925 54.8138 89.2612V55.71H64.68V89.3925C64.68 99.6075 58.68 104.257 49.9463 104.257C46.8591 104.426 43.7931 103.657 41.1513 102.051C38.5096 100.444 36.4157 98.0761 35.145 95.2575L43.1775 90.3863Z" fill="black"/>
    </g>

    <g id="ts">
        <g id="SVGRepo_bgCarrier" stroke-width="0"></g><g id="SVGRepo_tracerCarrier" stroke-linecap="round" stroke-linejoin="round"></g><g id="SVGRepo_iconCarrier"> <g> <polygon fill="#007ACC" transform="translate(128.000000, 128.000000) scale(1, -1) translate(-128.000000, -128.000000) " points="0 128 0 0 128 0 256 0 256 128 256 256 128 256 0 256"> </polygon> <path d="M146.658132,223.436863 L146.739401,212.953054 L130.079084,212.953054 L113.418767,212.953054 L113.418767,165.613371 L113.418767,118.273689 L101.63464,118.273689 L89.8505126,118.273689 L89.8505126,165.613371 L89.8505126,212.953054 L73.1901951,212.953054 L56.5298776,212.953054 L56.5298776,223.233689 C56.5298776,228.922577 56.6517824,233.676863 56.8143221,233.798768 C56.9362269,233.961308 77.2130522,234.042577 101.797179,234.001943 L146.536227,233.880038 L146.658132,223.436863 Z" fill="#FFFFFF" transform="translate(101.634640, 176.142993) rotate(-180.000000) translate(-101.634640, -176.142993) "> </path> <path d="M206.566631,234.272145 C213.068219,232.646748 218.025679,229.761668 222.57679,225.048018 C224.933616,222.528653 228.428219,217.936907 228.712663,216.839764 C228.793933,216.514684 217.659965,209.037859 210.914568,204.852462 C210.670758,204.689922 209.69552,205.74643 208.598377,207.371827 C205.306949,212.166748 201.852981,214.239129 196.570441,214.604843 C188.809171,215.133097 183.811076,211.069605 183.851711,204.283573 C183.851711,202.292462 184.136155,201.114049 184.948854,199.488653 C186.65552,195.953414 189.825044,193.840399 199.7806,189.533097 C218.106949,181.649922 225.949489,176.448653 230.825679,169.053097 C236.270758,160.804208 237.489806,147.638494 233.792028,137.845478 C229.728536,127.199129 219.651076,119.966113 205.469489,117.568653 C201.080917,116.796589 190.678377,116.918494 185.964727,117.771827 C175.684092,119.600399 165.931711,124.679764 159.917743,131.343891 C157.560917,133.944526 152.969171,140.730557 153.253616,141.218176 C153.37552,141.380716 154.432028,142.030875 155.610441,142.721668 C156.748219,143.371827 161.05552,145.850557 165.119012,148.207383 L172.473933,152.474049 L174.01806,150.198494 C176.171711,146.907065 180.885362,142.396589 183.729806,140.893097 C191.897425,136.585795 203.112663,137.195319 208.639012,142.15278 C210.995838,144.30643 211.971076,146.541351 211.971076,149.83278 C211.971076,152.799129 211.605362,154.099446 210.061235,156.334367 C208.070123,159.178811 204.006631,161.576272 192.466314,166.574367 C179.259965,172.263256 173.571076,175.798494 168.369806,181.406113 C165.362822,184.656907 162.518377,189.858176 161.339965,194.206113 C160.364727,197.822621 160.120917,206.884208 160.892981,210.541351 C163.61552,223.300716 173.245996,232.199764 187.143139,234.841034 C191.653616,235.694367 202.137425,235.369287 206.566631,234.272145 Z" fill="#FFFFFF" transform="translate(194.578507, 176.190240) scale(1, -1) translate(-194.578507, -176.190240) "> </path> </g> </g>
    </g>

    <g id="react">
        <g clip-path="url(#clip0_2_5687)">
        <path d="M92.9055 32.7027C91.703 32.2887 90.4903 31.9051 89.2686 31.5523C89.4738 30.7106 89.6627 29.8792 89.8304 29.0623C92.5837 15.6483 90.7838 4.84178 84.6359 1.28375C78.7415 -2.12722 69.1015 1.42949 59.3658 9.93342C58.4063 10.773 57.4681 11.6368 56.552 12.524C55.9388 11.934 55.3148 11.3556 54.6802 10.7888C44.4766 1.69616 34.2492 -2.13608 28.108 1.43215C22.2188 4.85374 20.4749 15.0127 22.9537 27.7254C23.2003 28.9844 23.4787 30.237 23.7887 31.4819C22.341 31.8947 20.9441 32.3342 19.6072 32.8019C7.64431 36.9881 0.00463867 43.5483 0.00463867 50.3529C0.00463867 57.3808 8.20617 64.43 20.666 68.7043C21.6762 69.0495 22.6947 69.3692 23.7208 69.6634C23.3875 71.0042 23.0917 72.354 22.8336 73.7114C20.4705 86.2035 22.3159 96.1223 28.1892 99.5222C34.2554 103.033 44.4369 99.4247 54.3505 90.7268C55.1544 90.0196 55.9406 89.2925 56.7083 88.546C57.7003 89.5066 58.7188 90.4393 59.7626 91.343C69.3659 99.6365 78.85 102.985 84.7176 99.5762C90.7781 96.055 92.7479 85.3995 90.1906 72.4356C89.9891 71.42 89.7632 70.4094 89.5131 69.4047C90.2281 69.1921 90.9299 68.9732 91.614 68.7455C104.567 64.4384 112.995 57.4747 112.995 50.3529C112.995 43.5234 105.109 36.919 92.9055 32.7027ZM90.0961 64.1474C89.4782 64.3525 88.8444 64.5505 88.1982 64.7432C86.7682 60.1995 84.8385 55.3684 82.4768 50.3764C84.7304 45.5036 86.5859 40.734 87.9758 36.22C89.1317 36.5558 90.2533 36.9097 91.3346 37.2832C101.791 40.8961 108.168 46.2372 108.168 50.3529C108.168 54.7367 101.28 60.4277 90.0961 64.1474ZM85.4556 73.3765C86.5864 79.1087 86.7475 84.2916 85.9985 88.3435C85.3258 91.9844 83.9726 94.4115 82.2989 95.3839C78.7384 97.4526 71.1234 94.7637 62.9109 87.6706C61.94 86.8305 60.9926 85.9634 60.0698 85.0703C63.2538 81.5756 66.4356 77.5131 69.5411 73.0008C75.0035 72.5144 80.164 71.7188 84.8438 70.6331C85.0693 71.5426 85.2732 72.4573 85.4556 73.3765ZM38.5256 95.0264C35.0467 96.2592 32.2758 96.2946 30.6008 95.3254C27.0368 93.2624 25.5551 85.298 27.5761 74.6151C27.8164 73.3527 28.0914 72.0972 28.401 70.8502C33.0292 71.8779 38.1522 72.6168 43.6274 73.0624C46.7541 77.4776 50.0277 81.5358 53.327 85.0894C52.6258 85.7703 51.9081 86.4338 51.1744 87.0793C46.7903 90.9252 42.3973 93.654 38.5256 95.0264ZM22.2276 64.1204C16.718 62.2302 12.1679 59.7738 9.04919 57.0933C6.24649 54.6848 4.8319 52.2932 4.8319 50.3529C4.8319 46.2234 10.9656 40.9564 21.1961 37.3766C22.4377 36.9425 23.7371 36.5327 25.0855 36.1482C26.4996 40.7641 28.3543 45.5904 30.5924 50.4707C28.3251 55.4233 26.444 60.3267 25.0162 64.997C24.0796 64.7278 23.1498 64.4355 22.2276 64.1204ZM27.6909 26.7947C25.5674 15.9031 26.9776 7.68706 30.5267 5.62497C34.3066 3.42867 42.6652 6.56011 51.4754 14.4115C52.0499 14.9247 52.6151 15.4482 53.1707 15.9819C49.8878 19.52 46.6442 23.548 43.5453 27.9371C38.2312 28.4315 33.1444 29.2253 28.4677 30.2889C28.1795 29.131 27.9205 27.9661 27.6909 26.7951V26.7947ZM76.43 38.8739C75.3254 36.9589 74.1797 35.0679 72.9939 33.2024C76.599 33.66 80.0532 34.2673 83.2968 35.0098C82.3232 38.1425 81.1094 41.4175 79.6807 44.7753C78.6364 42.7867 77.5526 40.8191 76.43 38.8739ZM56.5542 19.4443C58.7805 21.8652 61.0103 24.5678 63.2035 27.5003C58.7545 27.2894 54.298 27.2886 49.849 27.4977C52.0443 24.5922 54.2931 21.8931 56.5542 19.4443ZM36.5509 38.9071C35.4424 40.8367 34.3788 42.792 33.3612 44.7713C31.9558 41.4255 30.7531 38.1355 29.7711 34.9584C32.9948 34.2346 36.4326 33.6427 40.0148 33.1935C38.8158 35.0704 37.6608 36.9754 36.5509 38.9067V38.9071ZM40.1176 67.8569C36.4168 67.4423 32.9273 66.881 29.7044 66.1767C30.7019 62.9429 31.9311 59.5829 33.3669 56.1653C34.3886 58.1461 35.4566 60.1026 36.5699 62.033C37.7148 64.0176 38.9003 65.9614 40.1176 67.8569ZM56.6875 81.6027C54.3995 79.1255 52.1176 76.3848 49.8891 73.4372C52.0527 73.5222 54.2582 73.5656 56.5 73.5656C58.803 73.5656 61.0796 73.5138 63.3204 73.4137C61.1202 76.4145 58.8988 79.1592 56.6875 81.6027ZM79.7262 55.9907C81.2365 59.446 82.5094 62.7883 83.5202 65.9667C80.2443 66.7171 76.7072 67.3214 72.9803 67.7701C74.1745 65.8699 75.331 63.9461 76.449 61.9998C77.5857 60.0214 78.6783 58.0179 79.7262 55.9907ZM72.2679 59.5794C70.5563 62.5634 68.7486 65.4909 66.8474 68.357C63.4037 68.6018 59.9523 68.7234 56.5 68.7216C52.9836 68.7216 49.5634 68.6118 46.2699 68.3974C44.3191 65.5378 42.4769 62.6053 40.747 59.6059H40.7475C39.0258 56.6225 37.4176 53.5745 35.9264 50.4685C37.4138 47.3618 39.0171 44.3124 40.7329 41.3267L40.7325 41.3271C42.4476 38.3407 44.2752 35.4206 46.2112 32.5734C49.5713 32.3182 53.0171 32.1853 56.4995 32.1853H56.5C59.9983 32.1853 63.4484 32.3195 66.8077 32.5765C68.7242 35.4195 70.5401 38.3295 72.252 41.301C73.9735 44.2801 75.598 47.3147 77.123 50.3999C75.6137 53.5166 73.9943 56.5783 72.2679 59.5794ZM82.2252 5.48056C86.0086 7.67067 87.4801 16.5024 85.1029 28.0842C84.9511 28.8231 84.7807 29.5757 84.5953 30.339C79.9071 29.2528 74.8168 28.4452 69.4873 27.9433C66.3827 23.506 63.1655 19.4717 59.936 15.9792C60.7824 15.1604 61.6489 14.3628 62.5348 13.5871C70.8767 6.30141 78.673 3.42468 82.2252 5.48056ZM56.5 40.2263C62.0723 40.2263 66.5897 44.7603 66.5897 50.3529C66.5897 55.9456 62.0723 60.4795 56.5 60.4795C50.9277 60.4795 46.4102 55.9456 46.4102 50.3529C46.4102 44.7603 50.9277 40.2263 56.5 40.2263Z" fill="#00D8FF"/>
        </g>
        <defs>
        <clipPath id="clip0_2_5687">
        <rect width="113" height="101" fill="white"/>
        </clipPath>
        </defs>
    </g>

    <g id="redux">
        <path d="M72.6971 69.5627C76.5688 69.1619 79.5061 65.8242 79.3725 61.8184C79.2393 57.8131 75.9012 54.6086 71.8959 54.6086H71.6291C67.4897 54.7422 64.2856 58.2135 64.4193 62.3525C64.5529 64.3553 65.3537 66.091 66.5553 67.2926C62.016 76.2385 55.0734 82.7807 44.6594 88.2549C37.5832 91.9934 30.2402 93.3287 22.8971 92.3943C16.8889 91.593 12.216 88.923 9.27827 84.5164C5.00614 77.9742 4.60573 70.8975 8.21065 63.8213C10.7475 58.7475 14.7525 55.009 17.2893 53.1398C16.7553 51.4041 15.9541 48.4668 15.5537 46.3307C-3.80574 60.35 -1.80287 79.3094 4.07172 88.2549C8.47745 94.9311 17.4229 99.0701 27.3029 99.0701C29.9729 99.0701 32.643 98.8029 35.3135 98.1357C52.4033 94.7975 65.3541 84.65 72.6971 69.5627ZM96.1955 53.0066C86.0483 41.1234 71.0951 34.5811 54.0053 34.5811H51.8693C50.6676 32.1779 48.1307 30.5754 45.327 30.5754H45.0598C40.9213 30.709 37.7172 34.1803 37.8504 38.3197C37.984 42.325 41.3217 45.5295 45.327 45.5295H45.5938C48.5311 45.3959 51.068 43.5266 52.1361 40.9898H54.5393C64.6865 40.9898 74.2992 43.927 82.9779 49.6684C89.6533 54.0746 94.4598 59.816 97.1299 66.7586C99.3996 72.3664 99.266 77.8406 96.8627 82.5139C93.1246 89.5902 86.8496 93.4623 78.5717 93.4623C73.2311 93.4623 68.1578 91.8598 65.4873 90.6582C64.0188 91.9934 61.3484 94.1295 59.4791 95.4652C65.2205 98.1352 71.0951 99.6041 76.7025 99.6041C89.5197 99.6041 98.9992 92.5275 102.604 85.4512C106.476 77.707 106.209 64.3553 96.1955 53.0066ZM28.3709 71.832C28.5045 75.8377 31.8422 79.0418 35.8475 79.0418H36.1147C40.2537 78.9086 43.4578 75.4369 43.3242 71.2979C43.191 67.2922 39.8529 64.0881 35.8475 64.0881H35.5807C35.3135 64.0881 34.9127 64.0881 34.6463 64.2213C29.1721 55.1422 26.9025 45.2623 27.7037 34.5807C28.2373 26.5697 30.9078 19.6266 35.5807 13.8852C39.4525 8.94508 46.9291 6.5418 52.0029 6.40861C66.1549 6.14139 72.1627 23.7656 72.5635 30.8422C74.2992 31.2426 77.2365 32.1775 79.2393 32.8451C77.6369 11.2156 64.2856 0 51.4688 0C39.4524 0 28.3709 8.67869 23.9647 21.4963C17.8234 38.5865 21.8287 55.009 29.3053 67.9602C28.6381 68.8947 28.2373 70.3635 28.3709 71.8324V71.832Z" fill="#764ABC"/>
    </g>

    <g id="angular">
        <g id="SVGRepo_bgCarrier" stroke-width="0"></g><g id="SVGRepo_tracerCarrier" stroke-linecap="round" stroke-linejoin="round"></g><g id="SVGRepo_iconCarrier"> <g> <path d="M0.0996108949,45.522179 L125.908171,0.697276265 L255.103502,44.7252918 L234.185214,211.175097 L125.908171,271.140856 L19.3245136,211.971984 L0.0996108949,45.522179 Z" fill="#E23237"> </path> <path d="M255.103502,44.7252918 L125.908171,0.697276265 L125.908171,271.140856 L234.185214,211.274708 L255.103502,44.7252918 L255.103502,44.7252918 Z" fill="#B52E31"> </path> <path d="M126.107393,32.27393 L126.107393,32.27393 L47.7136187,206.692607 L76.9992218,206.194553 L92.7377432,166.848249 L126.207004,166.848249 L126.306615,166.848249 L163.063035,166.848249 L180.29572,206.692607 L208.286381,207.190661 L126.107393,32.27393 L126.107393,32.27393 Z M126.306615,88.155642 L152.803113,143.5393 L127.402335,143.5393 L126.107393,143.5393 L102.997665,143.5393 L126.306615,88.155642 L126.306615,88.155642 Z" fill="#FFFFFF"> </path> </g> </g>  
    </g>

    <g id="nodeJS">
        <g id="SVGRepo_bgCarrier" stroke-width="0"></g><g id="SVGRepo_tracerCarrier" stroke-linecap="round" stroke-linejoin="round"></g><g id="SVGRepo_iconCarrier"> <g> <path d="M127.999999,288.463771 C124.024844,288.463771 120.314699,287.403728 116.869564,285.548656 L81.6231884,264.612838 C76.32298,261.697724 78.9730854,260.637682 80.5631458,260.107661 C87.7184259,257.72257 89.0434775,257.192547 96.4637688,252.952381 C97.2587979,252.422361 98.3188405,252.687372 99.1138718,253.217392 L126.144927,269.383024 C127.20497,269.913045 128.530021,269.913045 129.325053,269.383024 L235.064182,208.165634 C236.124225,207.635611 236.654245,206.575571 236.654245,205.250519 L236.654245,83.0807467 C236.654245,81.7556929 236.124225,80.6956526 235.064182,80.1656324 L129.325053,19.2132506 C128.26501,18.6832305 126.939959,18.6832305 126.144927,19.2132506 L20.4057954,80.1656324 C19.3457551,80.6956526 18.8157349,82.0207041 18.8157349,83.0807467 L18.8157349,205.250519 C18.8157349,206.31056 19.3457551,207.635611 20.4057954,208.165634 L49.2919247,224.861286 C64.9275364,232.811595 74.7329196,223.536234 74.7329196,214.260871 L74.7329196,93.681159 C74.7329196,92.0910985 76.0579711,90.5010358 77.9130428,90.5010358 L91.4285716,90.5010358 C93.0186343,90.5010358 94.6086948,91.8260873 94.6086948,93.681159 L94.6086948,214.260871 C94.6086948,235.196689 83.2132512,247.387164 63.3374737,247.387164 C57.2422362,247.387164 52.4720502,247.387164 38.9565214,240.761906 L11.1304347,224.861286 C4.24016581,220.886129 5.68434189e-14,213.46584 5.68434189e-14,205.515528 L5.68434189e-14,83.3457557 C5.68434189e-14,75.3954465 4.24016581,67.9751552 11.1304347,64.0000006 L116.869564,2.78260752 C123.494824,-0.927535841 132.505176,-0.927535841 139.130436,2.78260752 L244.869565,64.0000006 C251.759834,67.9751552 256,75.3954465 256,83.3457557 L256,205.515528 C256,213.46584 251.759834,220.886129 244.869565,224.861286 L139.130436,286.078676 C135.685299,287.668739 131.710145,288.463771 127.999999,288.463771 L127.999999,288.463771 Z M160.596274,204.455488 C114.219461,204.455488 104.679089,183.254659 104.679089,165.233955 C104.679089,163.643893 106.004141,162.053832 107.859212,162.053832 L121.639752,162.053832 C123.229813,162.053832 124.554864,163.113872 124.554864,164.703935 C126.674947,178.749484 132.770187,185.639753 160.861283,185.639753 C183.122154,185.639753 192.662526,180.604556 192.662526,168.67909 C192.662526,161.788821 190.012423,156.753624 155.296065,153.308489 C126.409938,150.393375 108.389235,144.033126 108.389235,120.977226 C108.389235,99.5113875 126.409938,86.7908901 156.621119,86.7908901 C190.542443,86.7908901 207.238095,98.4513472 209.358178,123.89234 C209.358178,124.687371 209.093167,125.482403 208.563147,126.277434 C208.033127,126.807454 207.238095,127.337474 206.443064,127.337474 L192.662526,127.337474 C191.337475,127.337474 190.012423,126.277434 189.747412,124.952382 C186.567289,110.376813 178.351966,105.606625 156.621119,105.606625 C132.240165,105.606625 129.325053,114.086957 129.325053,120.447205 C129.325053,128.132506 132.770187,130.5176 165.631471,134.757766 C198.227744,138.997931 213.598344,145.093169 213.598344,167.884058 C213.333333,191.20497 194.252589,204.455488 160.596274,204.455488 L160.596274,204.455488 Z" fill="#539E43"> </path> </g> </g>  
    </g>

    <g id="git">
        <g clip-path="url(#clip0_2_5685)">
        <path d="M103.02 47.8219L57.1758 1.98038C54.5372 -0.6598 50.2552 -0.6598 47.6134 1.98038L38.0937 11.5001L50.1699 23.5763C52.9762 22.6281 56.1943 23.2642 58.4313 25.5012C60.6789 27.7525 61.3106 30.9981 60.3393 33.8134L71.9775 45.452C74.7932 44.482 78.0421 45.1095 80.291 47.3621C83.434 50.5039 83.434 55.596 80.291 58.7399C77.1471 61.8841 72.055 61.8841 68.9095 58.7399C66.5454 56.3733 65.9613 52.9013 67.1582 49.9888L56.3046 39.1352L56.3034 67.6973C57.0902 68.0863 57.8088 68.6002 58.4313 69.2189C61.5743 72.3607 61.5743 77.4532 58.4313 80.5995C55.2874 83.7422 50.1929 83.7422 47.0535 80.5995C43.9105 77.4532 43.9105 72.3611 47.0535 69.2193C47.8067 68.4658 48.7019 67.869 49.6871 67.4635V38.6352C48.7004 38.2324 47.8048 37.6353 47.0535 36.8793C44.6722 34.5013 44.0996 31.0071 45.3198 28.0831L33.4154 16.1775L1.98105 47.6099C-0.660352 50.2525 -0.660352 54.5349 1.98105 57.1755L47.8259 103.018C50.4652 105.658 54.7464 105.658 57.3891 103.018L103.019 57.3884C105.66 54.747 105.66 50.4621 103.019 47.8219" fill="#DE4C36"/>
        </g>
        <defs>
        <clipPath id="clip0_2_5685">
        <rect width="105" height="105" fill="white"/>
        </clipPath>
        </defs>
    </g>

    <g id="sql">
        <path d="m 852.97077,1013.9363 c -6.55238,-0.4723 -13.02857,-2.1216 -17.00034,-4.3296 -2.26232,-1.2576 -3.98589,-2.8032 -4.66223,-4.1807 l -0.4024,-0.8196 0,-25.70807 0,-25.7081 0.31843,-0.6465 c 1.42297,-2.889 5.96432,-5.4935 12.30378,-7.0562 2.15195,-0.5305 5.2586,-1.0588 7.79304,-1.3252 2.58797,-0.2721 9.44765,-0.2307 12.02919,0.073 6.86123,0.8061 12.69967,2.6108 16.29768,5.0377 1.38756,0.9359 2.81137,2.4334 3.29371,3.4642 l 0.41358,0.8838 -0.0354,25.6303 -0.0354,25.63047 -0.33195,0.6744 c -0.18257,0.3709 -0.73406,1.1007 -1.22553,1.6216 -2.99181,3.1715 -9.40919,5.5176 -17.8267,6.5172 -1.71567,0.2038 -9.16916,0.3686 -10.92937,0.2417 z m 12.07501,-22.02839 c -0.0252,-0.0657 -1.00472,-0.93831 -2.17671,-1.93922 -1.17199,-1.00091 -2.18138,-1.86687 -2.24309,-1.92436 -0.0617,-0.0575 0.15481,-0.26106 0.48117,-0.45237 0.32635,-0.19131 0.95163,-0.7235 1.3895,-1.18265 1.2805,-1.34272 1.88466,-3.00131 1.88466,-5.17388 0,-2.1388 -0.65162,-3.8645 -1.95671,-5.1818 -1.31533,-1.3278 -2.82554,-1.8983 -5.02486,-1.8983 -3.39007,0 -5.99368,1.9781 -6.82468,5.1851 -0.28586,1.1031 -0.28432,3.33211 0.003,4.31023 0.74941,2.55136 2.79044,4.40434 5.33062,4.83946 0.8596,0.14724 0.97605,0.21071 1.5621,0.85144 0.34829,0.38078 1.06301,1.14085 1.58827,1.68904 l 0.95501,0.9967 2.53878,0 c 1.39633,0 2.51816,-0.0537 2.49296,-0.11939 z m -8.70653,-7.10848 c -0.61119,-0.31868 -0.84225,-0.56599 -1.19079,-1.27453 -0.26919,-0.54724 -0.31522,-0.85851 -0.31824,-2.15197 -0.003,-1.3143 0.0388,-1.5983 0.31987,-2.169 0.45985,-0.9339 1.09355,-1.376 2.07384,-1.4469 1.36454,-0.099 2.15217,0.5707 2.56498,2.1801 0.50612,1.97321 -0.0504,4.07107 -1.26471,4.76729 -0.63707,0.36527 -1.58737,0.40659 -2.18495,0.095 z m -11.25315,3.66269 c 2.66179,-0.5048 4.1728,-2.0528 4.1728,-4.27495 0,-1.97137 -0.97548,-3.12004 -3.6716,-4.32364 -1.54338,-0.689 -2.10241,-1.1215 -2.10241,-1.6268 0,-0.4188 0.53052,-0.8777 1.14813,-0.993 0.60302,-0.1126 2.20237,0.1652 3.14683,0.5467 l 0.79167,0.3198 0,-1.7524 0,-1.7525 -0.85923,-0.1906 c -0.53103,-0.1178 -1.64689,-0.1885 -2.92137,-0.1849 -1.80528,0 -2.15881,0.044 -2.83818,0.3138 -1.98445,0.7878 -2.92613,2.1298 -2.91107,4.1485 0.0141,1.8898 1.01108,3.06864 3.49227,4.12912 1.46399,0.62572 2.05076,1.10218 2.05076,1.66522 0,1.1965 -1.99362,1.34375 -4.10437,0.30315 -0.57805,-0.28498 -1.09739,-0.54137 -1.1541,-0.56976 -0.0567,-0.0284 -0.10311,0.79023 -0.10311,1.81917 0,1.86239 0.002,1.87137 0.33919,1.99974 1.26979,0.48278 4.07626,0.69787 5.52379,0.42335 z m 30.4308,-1.72766 0,-1.58098 -2.40584,0 -2.40583,0 0,-5.43035 0,-5.4303 -2.13089,0 -2.13088,0 0,7.0113 0,7.01131 4.53672,0 4.53672,0 0,-1.58098 z m -14.84745,-27.70503 c 4.23447,-0.2937 7.4086,-0.8482 10.20178,-1.7821 2.78264,-0.9304 4.42643,-2.0562 4.79413,-3.2834 0.14166,-0.4729 0.13146,-0.6523 -0.0665,-1.1708 -0.88775,-2.3245 -5.84694,-4.1104 -13.42493,-4.8345 -3.24154,-0.3098 -9.13671,-0.2094 -12.22745,0.2081 -4.71604,0.6372 -8.54333,1.8208 -10.2451,3.1683 -3.44251,2.726 0.19793,5.7242 8.66397,7.1354 3.67084,0.6119 8.42674,0.828 12.30414,0.559 z" fill="#00bcf2" transform="translate(-830.906 -943.981)"/>
    </g>

    <g id="docker">
        <g id="SVGRepo_bgCarrier" stroke-width="0"></g><g id="SVGRepo_tracerCarrier" stroke-linecap="round" stroke-linejoin="round"></g><g id="SVGRepo_iconCarrier"> <circle cx="512" cy="512" r="512" style="fill:#0091e2"></circle> <path d="M827.3 461.5c-1.6-1.3-16.1-12.2-46.7-12.2-8.1 0-16.2.6-24.2 2.1-5.9-40.7-39.5-60.5-41-61.4l-8.2-4.8-5.4 7.8c-6.8 10.5-11.7 22-14.6 34.2-5.5 23.2-2.2 45 9.6 63.6-14.2 7.9-37.1 9.9-41.7 10H277c-9.9 0-17.9 8-17.9 17.9-.4 33.1 5.2 66 16.5 97.1 13 34.2 32.4 59.3 57.6 74.7 28.2 17.3 74.1 27.2 126.2 27.2 23.5.1 47-2.1 70.1-6.4 32.1-5.9 63-17.1 91.4-33.2 23.4-13.6 44.5-30.8 62.4-51.1 29.9-33.9 47.8-71.7 61.1-105.2h5.3c32.8 0 53-13.1 64.1-24.1 7.4-7 13.2-15.5 16.9-25l2.3-6.9-5.7-4.3zM312 489.9h50.7c2.4 0 4.4-2 4.4-4.4v-45.1c0-2.4-2-4.4-4.4-4.5H312c-2.4 0-4.4 2-4.4 4.4v45.2c0 2.5 2 4.4 4.4 4.4m69.9 0h50.7c2.4 0 4.4-2 4.4-4.4v-45.1c0-2.4-2-4.4-4.4-4.5h-50.7c-2.5 0-4.5 2-4.5 4.5v45.1c0 2.5 2 4.4 4.5 4.4m70.8.1h50.7c2.4 0 4.4-2 4.4-4.4v-45.1c0-2.4-2-4.4-4.4-4.5h-50.7c-2.4 0-4.4 2-4.4 4.4v45.2c0 2.4 2 4.3 4.4 4.4m70.1 0h50.7c2.4 0 4.4-2 4.5-4.4v-45.1c0-2.5-2-4.5-4.5-4.5h-50.7c-2.4 0-4.4 2-4.4 4.4v45.2c0 2.4 1.9 4.4 4.4 4.4m-141-65h50.7c2.4 0 4.4-2 4.4-4.5v-45.1c0-2.4-2-4.4-4.4-4.4h-50.7c-2.5 0-4.4 2-4.5 4.4v45.1c.1 2.5 2.1 4.5 4.5 4.5m70.9 0h50.7c2.4 0 4.4-2 4.4-4.5v-45.1c0-2.4-2-4.4-4.4-4.4h-50.7c-2.4 0-4.4 2-4.4 4.4v45.1c0 2.5 2 4.5 4.4 4.5m70.1 0h50.7c2.5 0 4.4-2 4.5-4.5v-45.1c0-2.5-2-4.4-4.5-4.4h-50.7c-2.4 0-4.4 2-4.4 4.4v45.1c0 2.5 1.9 4.5 4.4 4.5m0-64.9h50.7c2.5 0 4.5-2 4.5-4.5v-45.2c0-2.4-2-4.4-4.5-4.4h-50.7c-2.4 0-4.4 2-4.4 4.4v45.2c0 2.5 1.9 4.5 4.4 4.5M593.4 490h50.7c2.4 0 4.4-2 4.4-4.4v-45.1c0-2.5-2-4.4-4.4-4.5h-50.7c-2.4 0-4.4 2-4.4 4.4v45.2c0 2.4 2 4.4 4.4 4.4" style="fill:#fff"></path> </g>
    </g>

    <g id="gitSkill">
        <path fill-rule="evenodd" clip-rule="evenodd" d="M44 0C19.69 0 0 19.69 0 44C0 63.47 12.595 79.915 30.085 85.745C32.285 86.13 33.11 84.81 33.11 83.655C33.11 82.61 33.055 79.145 33.055 75.46C22 77.495 19.14 72.765 18.26 70.29C17.765 69.025 15.62 65.12 13.75 64.075C12.21 63.25 10.01 61.215 13.695 61.16C17.16 61.105 19.635 64.35 20.46 65.67C24.42 72.325 30.745 70.455 33.275 69.3C33.66 66.44 34.815 64.515 36.08 63.415C26.29 62.315 16.06 58.52 16.06 41.69C16.06 36.905 17.765 32.945 20.57 29.865C20.13 28.765 18.59 24.255 21.01 18.205C21.01 18.205 24.695 17.05 33.11 22.715C36.63 21.725 40.37 21.23 44.11 21.23C47.85 21.23 51.59 21.725 55.11 22.715C63.525 16.995 67.21 18.205 67.21 18.205C69.63 24.255 68.09 28.765 67.65 29.865C70.455 32.945 72.16 36.85 72.16 41.69C72.16 58.575 61.875 62.315 52.085 63.415C53.68 64.79 55.055 67.43 55.055 71.555C55.055 77.44 55 82.17 55 83.655C55 84.81 55.825 86.185 58.025 85.745C66.7597 82.796 74.3497 77.1822 79.7268 69.6937C85.1039 62.2052 87.9974 53.219 88 44C88 19.69 68.31 0 44 0Z" fill="black"/>
    </g>

    <!-- navigation -->

    <g id="link">
        <path d="M11.2864 8.7133C10.6038 8.031 9.67822 7.64771 8.71309 7.64771C7.74797 7.64771 6.82235 8.031 6.13976 8.7133L3.56559 11.2866C2.88299 11.9692 2.49951 12.895 2.49951 13.8604C2.49951 14.8257 2.88299 15.7515 3.56559 16.4341C4.24819 17.1167 5.174 17.5002 6.13934 17.5002C7.10469 17.5002 8.03049 17.1167 8.71309 16.4341L9.99976 15.1475" stroke="black" stroke-width="1.66667" stroke-linecap="round" stroke-linejoin="round"/>
        <path d="M8.71289 11.2867C9.39548 11.969 10.3211 12.3523 11.2862 12.3523C12.2513 12.3523 13.177 11.969 13.8596 11.2867L16.4337 8.71334C17.1163 8.03074 17.4998 7.10493 17.4998 6.13959C17.4998 5.17424 17.1163 4.24844 16.4337 3.56584C15.7511 2.88324 14.8253 2.49976 13.86 2.49976C12.8946 2.49976 11.9688 2.88324 11.2862 3.56584L9.99956 4.8525" stroke="black" stroke-width="1.66667" stroke-linecap="round" stroke-linejoin="round"/>
    </g>

    <g id="gitLink">
        <path fill-rule="evenodd" clip-rule="evenodd" d="M10 0C4.475 0 0 4.475 0 10C0 14.425 2.8625 18.1625 6.8375 19.4875C7.3375 19.575 7.525 19.275 7.525 19.0125C7.525 18.775 7.5125 17.9875 7.5125 17.15C5 17.6125 4.35 16.5375 4.15 15.975C4.0375 15.6875 3.55 14.8 3.125 14.5625C2.775 14.375 2.275 13.9125 3.1125 13.9C3.9 13.8875 4.4625 14.625 4.65 14.925C5.55 16.4375 6.9875 16.0125 7.5625 15.75C7.65 15.1 7.9125 14.6625 8.2 14.4125C5.975 14.1625 3.65 13.3 3.65 9.475C3.65 8.3875 4.0375 7.4875 4.675 6.7875C4.575 6.5375 4.225 5.5125 4.775 4.1375C4.775 4.1375 5.6125 3.875 7.525 5.1625C8.325 4.9375 9.175 4.825 10.025 4.825C10.875 4.825 11.725 4.9375 12.525 5.1625C14.4375 3.8625 15.275 4.1375 15.275 4.1375C15.825 5.5125 15.475 6.5375 15.375 6.7875C16.0125 7.4875 16.4 8.375 16.4 9.475C16.4 13.3125 14.0625 14.1625 11.8375 14.4125C12.2 14.725 12.5125 15.325 12.5125 16.2625C12.5125 17.6 12.5 18.675 12.5 19.0125C12.5 19.275 12.6875 19.5875 13.1875 19.4875C15.1726 18.8173 16.8976 17.5414 18.1197 15.8395C19.3418 14.1375 19.9994 12.0952 20 10C20 4.475 15.525 0 10 0Z" fill="black"/>
    </g>

    <g id="workPlace">
        <path d="M0.5 0.5V9.5H3.5V7.75H4.5V9.5H7.5V0.5H0.5ZM1.5 1.5H2.5V2.5H1.5V1.5ZM3.5 1.5H4.5V2.5H3.5V1.5ZM5.5 1.5H6.5V2.5H5.5V1.5ZM1.5 3.5H2.5V4.5H1.5V3.5ZM3.5 3.5H4.5V4.5H3.5V3.5ZM5.5 3.5H6.5V4.5H5.5V3.5ZM1.5 5.5H2.5V6.5H1.5V5.5ZM3.5 5.5H4.5V6.5H3.5V5.5ZM5.5 5.5H6.5V6.5H5.5V5.5ZM1.5 7.5H2.5V8.5H1.5V7.5ZM5.5 7.5H6.5V8.5H5.5V7.5Z" fill="#A7A7A7"/>
    </g>

    <g id="location">
        <path d="M6 6.75C5.62916 6.75 5.26665 6.64003 4.95831 6.43401C4.64996 6.22798 4.40964 5.93514 4.26773 5.59253C4.12581 5.24992 4.08868 4.87292 4.16103 4.50921C4.23338 4.14549 4.41195 3.8114 4.67418 3.54918C4.9364 3.28695 5.27049 3.10838 5.63421 3.03603C5.99792 2.96368 6.37492 3.00081 6.71753 3.14273C7.06014 3.28464 7.35298 3.52496 7.55901 3.83331C7.76503 4.14165 7.875 4.50416 7.875 4.875C7.87441 5.3721 7.67667 5.84867 7.32517 6.20017C6.97367 6.55167 6.4971 6.74941 6 6.75ZM6 3.75C5.7775 3.75 5.55999 3.81598 5.37498 3.9396C5.18998 4.06321 5.04579 4.23892 4.96064 4.44448C4.87549 4.65005 4.85321 4.87625 4.89662 5.09448C4.94003 5.31271 5.04717 5.51316 5.20451 5.6705C5.36184 5.82783 5.5623 5.93498 5.78052 5.97838C5.99875 6.02179 6.22495 5.99951 6.43052 5.91437C6.63609 5.82922 6.81179 5.68502 6.9354 5.50002C7.05902 5.31501 7.125 5.09751 7.125 4.875C7.1247 4.57672 7.00608 4.29075 6.79517 4.07983C6.58425 3.86892 6.29828 3.7503 6 3.75Z" fill="#A7A7A7"/>
        <path d="M6 11.25L2.8365 7.51912C2.79255 7.4631 2.74905 7.40673 2.706 7.35C2.16562 6.63817 1.87369 5.76871 1.875 4.875C1.875 3.78098 2.3096 2.73177 3.08319 1.95818C3.85678 1.1846 4.90599 0.75 6 0.75C7.09402 0.75 8.14323 1.1846 8.91682 1.95818C9.69041 2.73177 10.125 3.78098 10.125 4.875C10.1263 5.7683 9.83452 6.63737 9.29438 7.34888L9.294 7.35C9.294 7.35 9.1815 7.49775 9.16463 7.51763L6 11.25ZM3.3045 6.89813C3.30525 6.89813 3.39225 7.01362 3.41213 7.03837L6 10.0905L8.59125 7.03425C8.60775 7.01362 8.6955 6.89738 8.69588 6.897C9.13731 6.31542 9.37587 5.60514 9.375 4.875C9.375 3.97989 9.01942 3.12145 8.38649 2.48851C7.75355 1.85558 6.89511 1.5 6 1.5C5.1049 1.5 4.24645 1.85558 3.61352 2.48851C2.98058 3.12145 2.625 3.97989 2.625 4.875C2.62422 5.60559 2.86305 6.31628 3.30488 6.89813H3.3045Z" fill="#A7A7A7"/>
    </g>
    
    <g id="calendar">
        <g clip-path="url(#clip0_55630_362)">
        <path d="M5.33341 6.5C5.1566 6.5 4.98703 6.44732 4.86201 6.35355C4.73699 6.25979 4.66675 6.13261 4.66675 6C4.66675 5.86739 4.73699 5.74021 4.86201 5.64645C4.98703 5.55268 5.1566 5.5 5.33341 5.5C5.51023 5.5 5.67979 5.55268 5.80482 5.64645C5.92984 5.74021 6.00008 5.86739 6.00008 6C6.00008 6.13261 5.92984 6.25979 5.80482 6.35355C5.67979 6.44732 5.51023 6.5 5.33341 6.5ZM5.33341 8.5C5.1566 8.5 4.98703 8.44732 4.86201 8.35355C4.73699 8.25979 4.66675 8.13261 4.66675 8C4.66675 7.86739 4.73699 7.74021 4.86201 7.64645C4.98703 7.55268 5.1566 7.5 5.33341 7.5C5.51023 7.5 5.67979 7.55268 5.80482 7.64645C5.92984 7.74021 6.00008 7.86739 6.00008 8C6.00008 8.13261 5.92984 8.25979 5.80482 8.35355C5.67979 8.44732 5.51023 8.5 5.33341 8.5ZM7.33341 8C7.33341 8.13261 7.40365 8.25979 7.52868 8.35355C7.6537 8.44732 7.82327 8.5 8.00008 8.5C8.17689 8.5 8.34646 8.44732 8.47149 8.35355C8.59651 8.25979 8.66675 8.13261 8.66675 8C8.66675 7.86739 8.59651 7.74021 8.47149 7.64645C8.34646 7.55268 8.17689 7.5 8.00008 7.5C7.82327 7.5 7.6537 7.55268 7.52868 7.64645C7.40365 7.74021 7.33341 7.86739 7.33341 8ZM10.6667 8.5C10.4899 8.5 10.3204 8.44732 10.1953 8.35355C10.0703 8.25979 10.0001 8.13261 10.0001 8C10.0001 7.86739 10.0703 7.74021 10.1953 7.64645C10.3204 7.55268 10.4899 7.5 10.6667 7.5C10.8436 7.5 11.0131 7.55268 11.1382 7.64645C11.2632 7.74021 11.3334 7.86739 11.3334 8C11.3334 8.13261 11.2632 8.25979 11.1382 8.35355C11.0131 8.44732 10.8436 8.5 10.6667 8.5ZM7.33341 6C7.33341 6.13261 7.40365 6.25979 7.52868 6.35355C7.6537 6.44732 7.82327 6.5 8.00008 6.5C8.17689 6.5 8.34646 6.44732 8.47149 6.35355C8.59651 6.25979 8.66675 6.13261 8.66675 6C8.66675 5.86739 8.59651 5.74021 8.47149 5.64645C8.34646 5.55268 8.17689 5.5 8.00008 5.5C7.82327 5.5 7.6537 5.55268 7.52868 5.64645C7.40365 5.74021 7.33341 5.86739 7.33341 6ZM10.6667 6.5C10.4899 6.5 10.3204 6.44732 10.1953 6.35355C10.0703 6.25979 10.0001 6.13261 10.0001 6C10.0001 5.86739 10.0703 5.74021 10.1953 5.64645C10.3204 5.55268 10.4899 5.5 10.6667 5.5C10.8436 5.5 11.0131 5.55268 11.1382 5.64645C11.2632 5.74021 11.3334 5.86739 11.3334 6C11.3334 6.13261 11.2632 6.25979 11.1382 6.35355C11.0131 6.44732 10.8436 6.5 10.6667 6.5ZM5.33341 3.5C5.1566 3.5 4.98703 3.55268 4.86201 3.64645C4.73699 3.74021 4.66675 3.86739 4.66675 4C4.66675 4.13261 4.73699 4.25979 4.86201 4.35355C4.98703 4.44732 5.1566 4.5 5.33341 4.5H10.6667C10.8436 4.5 11.0131 4.44732 11.1382 4.35355C11.2632 4.25979 11.3334 4.13261 11.3334 4C11.3334 3.86739 11.2632 3.74021 11.1382 3.64645C11.0131 3.55268 10.8436 3.5 10.6667 3.5H5.33341Z" fill="#A7A7A7"/>
        <path fill-rule="evenodd" clip-rule="evenodd" d="M4 1.5C3.46957 1.5 2.96086 1.65804 2.58579 1.93934C2.21071 2.22064 2 2.60218 2 3V9C2 9.39782 2.21071 9.77936 2.58579 10.0607C2.96086 10.342 3.46957 10.5 4 10.5H12C12.5304 10.5 13.0391 10.342 13.4142 10.0607C13.7893 9.77936 14 9.39782 14 9V3C14 2.60218 13.7893 2.22064 13.4142 1.93934C13.0391 1.65804 12.5304 1.5 12 1.5H4ZM12 2.5H4C3.82319 2.5 3.65362 2.55268 3.5286 2.64645C3.40357 2.74021 3.33333 2.86739 3.33333 3V9C3.33333 9.13261 3.40357 9.25979 3.5286 9.35355C3.65362 9.44732 3.82319 9.5 4 9.5H12C12.1768 9.5 12.3464 9.44732 12.4714 9.35355C12.5964 9.25979 12.6667 9.13261 12.6667 9V3C12.6667 2.86739 12.5964 2.74021 12.4714 2.64645C12.3464 2.55268 12.1768 2.5 12 2.5Z" fill="#A7A7A7"/>
        </g>
        <defs>
        <clipPath id="clip0_55630_362">
        <rect width="16" height="12" fill="white"/>
        </clipPath>
        </defs>
    </g>
</svg>




